<?xml version="1.0" encoding="UTF-8" standalone="no" ?>
<!DOCTYPE svg PUBLIC "-//W3C//DTD SVG 1.1//EN" "http://www.w3.org/Graphics/SVG/1.1/DTD/svg11.dtd">
<svg xmlns="http://www.w3.org/2000/svg" xmlns:xlink="http://www.w3.org/1999/xlink" version="1.1" width="1280" height="1024" viewBox="0 0 1280 1024" xml:space="preserve">
<desc>Created with Fabric.js 5.3.0</desc>
<defs>
</defs>
<g transform="matrix(1 0 0 1 640 512)" id="background-logo"  >
<rect style="stroke: none; stroke-width: 0; stroke-dasharray: none; stroke-linecap: butt; stroke-dashoffset: 0; stroke-linejoin: miter; stroke-miterlimit: 4; fill: rgb(255,255,255); fill-opacity: 0; fill-rule: nonzero; opacity: 1;"  paint-order="stroke"  x="-640" y="-512" rx="0" ry="0" width="1280" height="1024" />
</g>
<g transform="matrix(1.9211538461538462 0 0 1.9211538461538462 640 405.5791269264869)" id="logo-logo"  >
<g style=""  paint-order="stroke"   >
		<g transform="matrix(0.2119243852119113 0 0 0.2119243852119113 9.554304213922705 26.799514675933267)"  >
<linearGradient id="SVGID_1_4_4_804850" gradientUnits="userSpaceOnUse" gradientTransform="matrix(1 0 0 1 0 0)"  x1="884.1574097" y1="157.353363" x2="424.4337463" y2="882.7614746">
<stop offset="0%" style="stop-color:rgb(69,216,80);stop-opacity: 1"/>
<stop offset="100%" style="stop-color:rgb(82,239,72);stop-opacity: 0"/>
</linearGradient>
<path style="stroke: none; stroke-width: 1; stroke-dasharray: none; stroke-linecap: butt; stroke-dashoffset: 0; stroke-linejoin: miter; stroke-miterlimit: 4; fill: url(#SVGID_1_4_4_804850); fill-rule: nonzero; opacity: 0.77;"  paint-order="stroke"  transform=" translate(-529.6795830780054, -641.4088898499999)" d="M 345.4703064 951.3740845 C 345.4703064 951.3740845 287.756073 919.5317383 309.6476746 870.7731934 C 331.5392762 822.0146484999999 531.5489502 564.2907714999999 531.5489502 564.2907714999999 C 531.5489502 564.2907714999999 565.3814087000001 546.3794555999999 568.3666382 533.4434814999998 C 571.3518677 520.5075683999999 585.2828369 524.4878540999998 585.2828369 524.4878540999998 C 585.2828369 524.4878540999998 636.0315552 503.09375009999985 649.9625854 443.3894043999998 C 667.1231689 369.8442078999998 652.9478148999999 331.4436951999998 652.9478148999999 331.4436951999998 L 752.4551390999999 415.0298157999998 C 752.4551390999999 415.0298157999998 769.3713377999999 562.3005982999998 709.6669920999999 623.9951172999998 C 649.9625853999999 685.6896362999998 602.1990965999998 714.5467529999999 547.4700926999999 774.2510986999998 C 492.7410889 833.9555054 345.4703064 951.3740845 345.4703064 951.3740845 z" stroke-linecap="round" />
</g>
		<g transform="matrix(0.2119243852119113 0 0 0.2119243852119113 0 0)"  >
<linearGradient id="SVGID_2_5_5_804851" gradientUnits="userSpaceOnUse" gradientTransform="matrix(1 0 0 1 0 0)"  x1="273.8006592" y1="856.5802612" x2="863.37677" y2="167.3173676">
<stop offset="0%" style="stop-color:rgb(0,168,129);stop-opacity: 1"/>
<stop offset="100%" style="stop-color:rgb(101,255,59);stop-opacity: 1"/>
</linearGradient>
<path style="stroke: none; stroke-width: 1; stroke-dasharray: none; stroke-linecap: butt; stroke-dashoffset: 0; stroke-linejoin: miter; stroke-miterlimit: 4; fill: url(#SVGID_2_5_5_804851); fill-rule: nonzero; opacity: 1;"  paint-order="stroke"  transform=" translate(-484.5960302609523, -514.9509805861112)" d="M 731.2351074 126.4208908 C 709.6826781999999 88.5579681 692.4563598 64.6475754 688.9487915 59.853889499999994 C 688.7928466999999 59.62005619999999 688.5979004 59.38622289999999 688.4226074 59.15238959999999 C 688.3640747 59.09387209999999 688.3251952999999 59.01596839999999 688.2666625999999 58.95745089999999 C 596.522583 256.28125 300.6148987 296.3656921 180.536972 508.4215393 C 172.33296199999998 522.9002685 164.9474945 538.1778564 158.51686089999998 554.37146 C 112.19659419999999 670.8443603999999 132.7942047 765.6674194999999 165.6489868 831.9615478999999 C 187.02612299999998 875.0859374999999 245.9933319 881.3217774 276.0029907 843.7121582999999 L 313.5736999 796.6514282999999 L 472.6837158 597.3010254999999 L 500.9396362 561.8934327 L 519.6665649 576.0603027999999 L 529.7996215000001 583.7381591999999 L 536.8150024 589.0386352999999 L 506.43493650000005 631.3834838999999 L 374.3531494 815.4172363 L 338.6142273 865.2061157 C 305.5061035 911.3509521000001 341.4593506 975.3262939000001 398.04910279999996 970.7078857 C 563.1417236 957.2425537 768.0067749 824.2642211 822.0438843 615.852539 C 873.1188354 418.8209534 787.4547729 225.1802063 731.2351074 126.4208908 z M 489.2475281 446.355896 C 489.2865296 445.8687134 489.3449402 445.34265139999997 489.4034424 444.77746579999996 C 489.4034424 444.62164299999995 489.4229431 444.46572869999994 489.4619751 444.30978389999996 C 489.52035520000004 443.66668699999997 489.6177673 442.98471069999994 489.7151794 442.2832031 C 489.7932128 441.75701899999996 489.8711242 441.21145629999995 489.9685363 440.64624019999997 C 490.06604 440.10067749999996 490.1634521 439.51611319999995 490.2803649 438.9313964 C 490.2998961 438.7756042 490.3387755 438.6001586 490.3582763 438.42471309999996 C 490.4947204 437.723236 490.6506347 437.00222769999993 490.8259582 436.242218 C 490.9039611 435.79403679999996 491.02090450000003 435.3458862 491.1378173 434.8782348 C 491.41064439999997 433.6505431 491.7418822 432.3448486 492.112152 431.0002441 C 493.4372252 426.12854 495.3469237 420.4579162 498.0556029 414.0272827 C 498.4258727 413.1308288 498.8351439 412.2150268 499.2442931 411.2795715 C 501.0760497 407.1094665 503.2585753 402.64691159999995 505.8113402 397.8921203 C 541.1021117 332.2799377 504.9539183 300.7112426 504.9539183 300.7112426 C 504.9539183 300.7112426 505.3046568 300.7892455 505.9672545 300.964569 C 506.4544371 301.0814818 507.13644400000004 301.2569274 507.9744566 301.4712523 C 510.5077208 302.1143492 514.5609129 303.2055968 519.8223875 304.7450255 C 520.9136351 305.0762633 522.0634153 305.4076232 523.252075 305.7778929 C 523.3494871 305.7972716 523.4275511 305.81677229999997 523.5054319 305.8557738 C 524.5771482 306.1675109 525.687927 306.4988707 526.8182370999999 306.8691405 C 528.4356687 307.3563231 530.1309812 307.9018859 531.8847653999999 308.4670714 C 532.6447751999999 308.7008971 533.4047848999999 308.954254 534.1842038999998 309.2074584 C 534.9636838999999 309.46081530000004 535.7626340999998 309.7141417 536.5616452999998 309.9869994 C 538.1595456999997 310.513153 539.7963864999998 311.05874620000003 541.4917599999998 311.6433104 C 541.7841183999998 311.7408446 542.0764157999997 311.83825670000004 542.3686520999997 311.93566880000003 C 543.7911984999997 312.4228514 545.2332760999998 312.92950420000005 546.7142331999997 313.4556883 C 548.5849606999998 314.0986937 550.5141599999997 314.78079210000004 552.4628293999997 315.50180040000004 C 554.2362058999997 316.16427600000003 556.0289914999997 316.82687360000006 557.8607175999997 317.50888050000003 C 561.0175779999997 328.2071227 566.3959958999997 353.59854110000003 556.4966428999998 379.57455430000005 C 557.3930661999998 377.95709210000007 570.5662229999998 353.54003890000007 572.8656614999998 323.3744505 C 582.5700681999998 327.33032210000005 592.8591306999998 331.87066630000004 603.4014890999997 336.9957274 C 609.4034421999997 339.8992308 615.4833371999997 342.99771100000004 621.5827634999997 346.29098500000003 C 632.8656003999997 370.474121 630.6830442999997 401.20489490000006 629.0461423999997 414.30010980000003 C 628.5784299999997 418.0220641 628.1497800999997 420.32147210000005 628.0913083999997 420.6527404 C 631.6769406999997 413.6765136 634.2686765999997 406.56378170000005 636.1393430999997 399.70437610000005 C 640.9915769999997 381.7959594000001 640.9136350999996 365.48547350000007 640.4265134999997 357.08663930000006 C 644.2069699999997 359.40557850000005 647.9873655999997 361.78305040000004 651.7288205999997 364.23840320000005 C 662.6804196999997 371.46795640000005 673.3786618999998 379.36010730000004 683.4729611999998 387.9733580000001 C 689.7476803999998 404.2643431000001 697.2695920999997 430.59109480000006 692.5147702999998 454.7546996000001 C 692.9435422999998 453.4881286000001 702.7258908999997 423.5173644000001 697.8152463999998 401.1464843000001 C 708.1627805999998 411.3380737000001 717.5554807999997 422.4456176000001 725.5255124999998 434.4689635000001 C 725.5255124999998 434.4689635000001 739.9067990999997 501.0944823000001 654.0282590999998 577.5218505 L 572.6901853999998 515.9239501000001 L 542.9727781999998 493.43615710000006 L 489.16961659999976 452.70861800000006 C 489.16961659999976 452.70861800000006 489.1306150999998 452.45526110000003 489.11108389999976 451.9681090000001 L 489.11108389999976 451.9486083000001 C 489.11108389999976 451.7732848000001 489.09170519999975 451.5783385000001 489.09170519999975 451.3445128000001 C 489.0527039 450.2922668 489.0527039 448.6164246 489.2475281 446.355896 z M 524.3043213 559.5939941 L 503.06375119999996 543.5173950000001 C 486.28561399999995 530.8118896000001 477.18515009999993 510.2533264000001 478.783081 488.68136590000006 L 480.2445983 469.01910390000006 L 480.4589233 466.07656850000006 L 481.4138794 466.7976684000001 L 538.3348999 509.90255730000007 L 564.3303833 529.5842284 L 642.102356 588.4734496 L 620.8032227 596.2097777 C 600.4784546 603.614746 578.2244873 600.4188841 561.4268799 587.7135008 L 538.5298462000001 570.370178 L 524.3043213 559.5939941 z" stroke-linecap="round" />
</g>
		<g transform="matrix(0.2119243852119113 0 0 0.2119243852119113 0.3418563077926251 -5.613900474631919)"  >
<linearGradient id="SVGID_3_6_6_804852" gradientUnits="userSpaceOnUse" gradientTransform="matrix(1 0 0 1 0 0)"  x1="258.8506165" y1="938.8613281" x2="905.6480103" y2="-133.8272552">
<stop offset="0%" style="stop-color:rgb(0,86,119);stop-opacity: 1"/>
<stop offset="100%" style="stop-color:rgb(82,239,72);stop-opacity: 0"/>
</linearGradient>
<path style="stroke: none; stroke-width: 1; stroke-dasharray: none; stroke-linecap: butt; stroke-dashoffset: 0; stroke-linejoin: miter; stroke-miterlimit: 4; fill: url(#SVGID_3_6_6_804852); fill-rule: nonzero; opacity: 1;"  paint-order="stroke"  transform=" translate(-486.20913536658145, -488.46086964857847)" d="M 731.2351074 126.4208908 C 718.4712523999999 101.9844284 704.3044433 79.5745621 688.9487915 59.853889499999994 C 688.7928466999999 59.62005619999999 688.5979004 59.38622289999999 688.4226074 59.15238959999999 C 688.3640747 59.09387209999999 688.3251952999999 59.01596839999999 688.2666625999999 58.95745089999999 C 688.2666625999999 58.95745089999999 708.1627808 154.96916969999998 678.2698975 280.5813065 C 686.9220581 203.49134069999997 691.0337525 119.69791419999999 688.2666625999999 58.95745089999997 C 596.522583 256.28125 300.6148987 296.3656921 180.536972 508.4215393 C 166.1946868 573.6244507 152.08622739999998 682.0883179 191.2157287 762.3156128 C 223.9926147 829.5256958 271.4820251 822.0233154 313.5736999 796.6514282 L 329.1241455 777.1840820000001 C 332.1057129 731.6823120000001 330.0205994 628.1876220000001 265.869812 527.4796142000001 C 265.869812 527.4796142000001 340.8162537 594.7677612000001 355.9770813 743.5302734000002 L 402.102417 685.7128296000002 L 402.1219177 685.6932984000002 C 409.838623 646.0571290000003 429.16967769999997 511.59793100000024 370.6506042 373.5140381000002 C 370.6506042 373.5140381000002 440.2576904 462.60797120000024 435.24954219999995 644.1863403000002 L 472.68371579999996 597.3010254000002 L 500.93963619999994 561.8934326000002 L 519.6665648999999 576.0603027000002 L 529.7996215 583.7381591000002 L 536.8150023999999 589.0386352000002 L 506.43493649999994 631.3834838000001 L 495.85357659999994 646.1155395000002 C 655.8211669 596.0733642000002 761.8295286999999 642.7248535000002 761.8295286999999 642.7248535000002 C 620.6862791999998 622.7508545000002 508.83178699999985 670.9223633000003 457.93215929999985 698.9638672000002 L 412.21609479999984 762.6468506000002 C 542.6025388999999 748.1486206000002 617.4320066999999 795.3262940000002 619.4391477999998 796.6124878000003 C 526.3699338999998 767.5185547000003 442.30377179999977 778.8793945000003 391.13131699999974 792.0525513000002 L 374.35314929999976 815.4172364000002 C 367.33782949999977 842.1921387000002 364.18096909999974 879.6069337000002 388.24728379999976 907.1028443000002 C 430.0464780999998 954.8651124000003 673.3397825999998 839.9317017000003 761.4008787999998 663.8096314000003 C 837.1851196 512.2409058 811.2871094 279.4900208 731.2351074 126.4208908 z M 620.8032227 596.2097778 C 600.4784546 603.6147460999999 578.2244873 600.4188842 561.4268799 587.7135009 L 538.5298462000001 570.3701781 L 524.3043213000001 559.593994 L 503.06375120000007 543.5173949 C 486.28561400000007 530.8118895 477.18515010000004 510.2533263 478.7830810000001 488.6813658 L 480.2445983000001 469.0191038 L 480.4589233000001 466.0765684 L 481.4138794000001 466.7781675 L 481.4138794000001 466.7976682 L 538.3348999000001 509.90255709999997 L 564.3303833000001 529.5842282 L 642.1023560000001 588.4734493999999 L 620.8032227 596.2097778 z M 654.0282593 577.5218506 L 572.6901856 515.9239502 L 542.9727783999999 493.4361572 L 489.1696167999999 452.7086181 C 489.1696167999999 452.7086181 489.13061529999993 452.4552612 489.1110840999999 451.96810910000005 L 489.1110840999999 451.94860840000007 C 489.1110840999999 451.7732849000001 489.0917053999999 451.57833860000005 489.0917053999999 451.34451290000004 C 489.0527038999999 450.29226680000005 489.0527038999999 448.61642450000005 489.2475281999999 446.35589600000003 C 489.2865296999999 445.86871340000005 489.3449402999999 445.3426514 489.4034424999999 444.7774658 C 489.4034424999999 444.621643 489.4229431999999 444.4657287 489.4619751999999 444.3097839 C 489.52035529999995 443.666687 489.61776739999993 442.9847107 489.7151794999999 442.28320310000004 C 489.7932128999999 441.757019 489.8711242999999 441.2114563 489.96853639999995 440.6462402 C 490.04653929999995 440.1006775 490.16345219999994 439.5161132 490.28036499999996 438.93139640000004 C 490.2998962 438.77560420000003 490.33877559999996 438.60015860000004 490.35827639999997 438.4247131 C 490.49472049999997 437.72323600000004 490.6506348 437.0022277 490.82595829999997 436.24221800000004 C 490.90396119999997 435.7940368 491.0209046 435.34588620000005 491.13781739999996 434.87823480000003 C 491.41064449999993 433.65054310000005 491.7418823 432.34484860000003 492.11215209999995 431.00024410000003 C 493.43722529999997 426.12854000000004 495.34692379999996 420.45791620000006 498.05560299999996 414.02728270000006 C 498.4258728 413.1308288000001 498.83514399999996 412.21502680000003 499.24429319999996 411.27957150000003 C 501.07604979999996 407.10946650000005 503.2585754 402.6469116 505.8113403 397.89212030000004 C 541.1021118 332.27993770000006 504.95391839999996 300.71124260000005 504.95391839999996 300.71124260000005 C 504.95391839999996 300.71124260000005 505.30465689999994 300.78924550000005 505.9672546 300.96456900000004 C 506.4544372 301.08148180000006 507.1364441 301.25692740000005 507.97445669999996 301.47125230000006 C 510.5077209 302.11434920000005 514.5609129999999 303.2055968000001 519.8223876 304.74502550000005 C 520.9136351999999 305.07626330000005 522.0634153999999 305.40762320000005 523.2520751 305.77789290000004 C 523.3494872 305.79727160000004 523.4275511999999 305.8167723 523.5054319999999 305.85577380000007 C 524.5771483 306.1675109000001 525.6879270999999 306.49887070000005 526.8182371999999 306.86914050000007 C 528.4356687999999 307.35632310000005 530.1309812999999 307.9018859000001 531.8847654999998 308.46707140000007 C 532.6252439999998 308.7008971000001 533.4047849999998 308.93475330000007 534.1842039999998 309.20745840000006 C 534.9636839999998 309.46081530000004 535.7626341999998 309.7141417000001 536.5616453999997 309.98699940000006 C 538.1595457999997 310.51315300000005 539.7963865999998 311.0587462000001 541.4917600999997 311.6433104000001 C 541.7841184999997 311.74084460000006 542.0764158999997 311.8382567000001 542.3686521999997 311.9356688000001 C 543.7911985999997 312.42285140000007 545.2332761999998 312.9295042000001 546.7142332999997 313.4556883000001 C 548.5849607999997 314.09869370000007 550.5141600999997 314.7807921000001 552.4628294999997 315.5018004000001 C 554.2362059999997 316.1642760000001 556.0289915999997 316.8268736000001 557.8607176999997 317.5088805000001 C 561.0175780999997 328.20712270000007 566.3959959999996 353.5985411000001 556.4966429999997 379.5745543000001 C 557.3930662999998 377.9570921000001 570.5662230999998 353.5400389000001 572.8656615999997 323.3744505000001 C 582.5700682999998 327.3303221000001 592.8591307999998 331.8706663000001 603.4014891999997 336.9957274000001 C 609.4034422999997 339.89923080000005 615.4833372999997 342.9977110000001 621.5827635999997 346.2909850000001 C 632.8656004999997 370.4741210000001 630.6830443999996 401.2048949000001 629.0461424999996 414.3001098000001 C 628.5784300999997 418.0220641000001 628.1497801999997 420.3214721000001 628.0913084999996 420.6527404000001 C 631.6769407999997 413.6765136000001 634.2686766999997 406.5637817000001 636.1393431999996 399.7043761000001 C 640.9915770999996 381.79595940000013 640.9136351999996 365.4854735000001 640.4265135999997 357.0866393000001 C 644.2069700999997 359.4055785000001 647.9873656999997 361.7830504000001 651.7288206999997 364.2384032000001 C 662.6804197999996 371.4679564000001 673.3786619999997 379.3601073000001 683.4729612999997 387.97335800000013 C 689.7476804999998 404.26434310000013 697.2695921999997 430.5910948000001 692.5147703999997 454.75469960000015 C 692.9435423999997 453.48812860000015 702.7258909999997 423.51736440000013 697.8152464999997 401.14648430000017 C 708.1627806999998 411.33807370000017 717.5554808999997 422.44561760000016 725.5255125999997 434.46896350000014 C 725.5255127 434.4689636 739.9067993 501.0944824 654.0282593 577.5218506 z" stroke-linecap="round" />
</g>
</g>
</g>
<g transform="matrix(1.9211538461538462 0 0 1.9211538461538462 639.964458653846 678.822508345268)" id="text-logo"  >
<g style=""  paint-order="stroke"   >
		<g transform="matrix(1 0 0 1 0 0)" id="text-logo-path-0"  >
<path style="stroke: rgb(255,255,255); stroke-width: 4; stroke-dasharray: none; stroke-linecap: butt; stroke-dashoffset: 0; stroke-linejoin: miter; stroke-miterlimit: 4; fill: rgb(255,255,255); fill-rule: nonzero; opacity: 1;"  paint-order="stroke"  transform=" translate(-258.705, 12.95)" d="M 4.07 -24.97 L 4.07 -0.92 C 4.07 -0.63 3.96 -0.37 3.29 -0.37 L 1.11 -0.37 L 1.11 0 L 7.4 0 L 7.4 -0.37 L 5.22 -0.37 C 4.55 -0.37 4.44 -0.63 4.44 -0.92 L 4.44 -24.38 L 15.17 0 L 15.58 0 L 26.27 -24.94 L 26.27 -0.92 C 26.27 -0.63 26.16 -0.37 25.49 -0.37 L 23.31 -0.37 L 23.31 0 L 30.71 0 L 30.71 -0.37 L 28.53 -0.37 C 27.86 -0.37 27.75 -0.63 27.75 -0.92 L 27.75 -24.97 C 27.75 -25.27 27.86 -25.53 28.53 -25.53 L 30.71 -25.53 L 30.71 -25.9 L 26.27 -25.9 L 15.95 -1.81 L 5.36 -25.9 L 1.11 -25.9 L 1.11 -25.53 L 3.29 -25.53 C 3.96 -25.53 4.07 -25.27 4.07 -24.97 Z M 47.51 -25.09 L 54.98 -11.58 L 54.98 -0.92 C 54.98 -0.63 54.87 -0.37 54.2 -0.37 L 52.02 -0.37 L 52.02 0 L 59.42 0 L 59.42 -0.37 L 57.24 -0.37 C 56.57 -0.37 56.46 -0.63 56.46 -0.92 L 56.46 -11.84 L 63.79 -25.09 C 63.94 -25.34 64.34 -25.53 65.01 -25.53 L 67.19 -25.53 L 67.19 -25.9 L 60.75 -25.9 L 60.75 -25.53 L 62.94 -25.53 C 63.6 -25.53 63.42 -25.34 63.27 -25.09 L 56.2 -12.28 L 49.14 -25.09 C 48.99 -25.34 48.8 -25.53 49.47 -25.53 L 51.65 -25.53 L 51.65 -25.9 L 44.1 -25.9 L 44.1 -25.53 L 46.29 -25.53 C 46.95 -25.53 47.36 -25.34 47.51 -25.09 Z M 106.56 -24.97 L 106.56 -0.92 C 106.56 -0.63 106.45 -0.37 105.78 -0.37 L 103.6 -0.37 L 103.6 0 L 111 0 L 111 -0.37 L 108.82 -0.37 C 108.15 -0.37 108.04 -0.63 108.04 -0.92 L 108.04 -8.29 L 112 -13.65 L 122.32 -0.74 C 122.51 -0.48 122.8 -0.37 122.14 -0.37 L 119.95 -0.37 L 119.95 0 L 126.32 0 L 126.32 -0.37 L 124.13 -0.37 C 123.47 -0.37 122.95 -0.48 122.77 -0.74 L 112.18 -13.95 L 120.44 -25.16 C 120.62 -25.38 121.1 -25.53 121.77 -25.53 L 123.95 -25.53 L 123.95 -25.9 L 117.59 -25.9 L 117.59 -25.53 L 119.77 -25.53 C 120.44 -25.53 120.18 -25.38 119.99 -25.16 L 108.04 -8.88 L 108.04 -24.97 C 108.04 -25.27 108.15 -25.53 108.82 -25.53 L 111 -25.53 L 111 -25.9 L 103.6 -25.9 L 103.6 -25.53 L 105.78 -25.53 C 106.45 -25.53 106.56 -25.27 106.56 -24.97 Z M 144.74 -24.97 L 144.74 -0.92 C 144.74 -0.63 144.63 -0.37 143.97 -0.37 L 141.78 -0.37 L 141.78 0 L 149.18 0 L 149.18 -0.37 L 147 -0.37 C 146.33 -0.37 146.22 -0.63 146.22 -0.92 L 146.22 -24.97 C 146.22 -25.27 146.33 -25.53 147 -25.53 L 149.18 -25.53 L 149.18 -25.9 L 141.78 -25.9 L 141.78 -25.53 L 143.97 -25.53 C 144.63 -25.53 144.74 -25.27 144.74 -24.97 Z M 166.28 -24.97 L 166.28 -0.92 C 166.28 -0.63 166.17 -0.37 165.5 -0.37 L 163.32 -0.37 L 163.32 0 L 169.61 0 L 169.61 -0.37 L 167.42 -0.37 C 166.76 -0.37 166.65 -0.63 166.65 -0.92 L 166.65 -24.72 L 182.19 0 L 182.56 0 L 182.56 -24.97 C 182.56 -25.27 182.67 -25.53 183.33 -25.53 L 185.52 -25.53 L 185.52 -25.9 L 179.23 -25.9 L 179.23 -25.53 L 181.41 -25.53 C 182.08 -25.53 182.19 -25.27 182.19 -24.97 L 182.19 -2.63 L 167.57 -25.9 L 163.32 -25.9 L 163.32 -25.53 L 165.5 -25.53 C 166.17 -25.53 166.28 -25.27 166.28 -24.97 Z M 202.61 -24.97 L 202.61 -0.92 C 202.61 -0.63 202.5 -0.37 201.83 -0.37 L 199.65 -0.37 L 199.65 0 L 209.49 0 C 217.37 0 222.96 -5.11 222.96 -12.99 C 222.96 -20.5 217.67 -25.9 209.49 -25.9 L 199.65 -25.9 L 199.65 -25.53 L 201.83 -25.53 C 202.5 -25.53 202.61 -25.27 202.61 -24.97 Z M 204.09 -0.37 L 204.09 -25.53 L 209.49 -25.53 C 216.56 -25.53 221.48 -20.57 221.48 -12.99 C 221.48 -5.62 216.86 -0.37 209.49 -0.37 Z M 273.87 0.18 C 281.38 0.18 286.97 -5.11 286.97 -12.99 C 286.97 -20.5 281.68 -26.08 273.87 -26.08 C 266.25 -26.08 260.7 -20.87 260.7 -12.99 C 260.7 -5.4 265.99 0.18 273.87 0.18 Z M 262.18 -12.99 C 262.18 -20.28 266.88 -25.71 273.87 -25.71 C 280.57 -25.71 285.49 -20.57 285.49 -12.99 C 285.49 -5.62 280.87 -0.18 273.87 -0.18 C 267.07 -0.18 262.18 -5.29 262.18 -12.99 Z M 302.96 -24.97 L 302.96 -0.92 C 302.96 -0.63 302.84 -0.37 302.18 -0.37 L 300 -0.37 L 300 0 L 307.4 0 L 307.4 -0.37 L 305.21 -0.37 C 304.55 -0.37 304.44 -0.63 304.44 -0.92 L 304.44 -8.62 C 305.92 -12.21 309.02 -12.88 312.28 -12.88 L 313.17 -12.88 C 313.46 -12.88 313.72 -12.73 313.72 -11.95 L 313.72 -9.32 L 314.09 -9.32 L 314.09 -16.8 L 313.72 -16.8 L 313.72 -14.17 C 313.72 -13.39 313.46 -13.25 313.17 -13.25 L 312.28 -13.25 C 309.21 -13.25 306.1 -12.65 304.44 -9.55 L 304.44 -25.53 L 315.39 -25.53 C 315.68 -25.53 315.98 -25.31 316.16 -24.68 L 316.79 -22.61 L 317.16 -22.68 L 316.31 -25.57 L 316.2 -25.9 L 300 -25.9 L 300 -25.53 L 302.18 -25.53 C 302.84 -25.53 302.96 -25.27 302.96 -24.97 Z M 370.15 0.18 C 373.81 0.18 376.92 -1.04 379.18 -3.07 L 378.92 -3.33 C 376.73 -1.37 373.74 -0.18 370.15 -0.18 C 363.34 -0.18 358.46 -5.29 358.46 -12.99 C 358.46 -20.28 363.15 -25.71 370.15 -25.71 C 373 -25.71 375.48 -25.01 377.47 -23.68 L 377.7 -23.98 C 375.62 -25.34 373.03 -26.08 370.15 -26.08 C 362.53 -26.08 356.98 -20.87 356.98 -12.99 C 356.98 -5.4 362.27 0.18 370.15 0.18 Z M 396.86 -24.97 L 396.86 -0.92 C 396.86 -0.63 396.75 -0.37 396.08 -0.37 L 393.9 -0.37 L 393.9 0 L 410.85 0 L 410.96 -0.33 L 411.81 -3.22 L 411.44 -3.29 L 410.81 -1.22 C 410.63 -0.59 410.33 -0.37 410.03 -0.37 L 398.34 -0.37 L 398.34 -24.97 C 398.34 -25.27 398.45 -25.53 399.12 -25.53 L 401.3 -25.53 L 401.3 -25.9 L 393.9 -25.9 L 393.9 -25.53 L 396.08 -25.53 C 396.75 -25.53 396.86 -25.27 396.86 -24.97 Z M 428.9 -24.97 L 428.9 -0.92 C 428.9 -0.63 428.79 -0.37 428.13 -0.37 L 425.94 -0.37 L 425.94 0 L 442.82 0 L 442.93 -0.33 L 443.78 -3.22 L 443.41 -3.29 L 442.78 -1.22 C 442.59 -0.59 442.3 -0.37 442 -0.37 L 430.38 -0.37 L 430.38 -8.62 C 431.86 -12.21 434.97 -12.88 438.23 -12.88 L 439.12 -12.88 C 439.41 -12.88 439.67 -12.73 439.67 -11.95 L 439.67 -9.32 L 440.04 -9.32 L 440.04 -16.8 L 439.67 -16.8 L 439.67 -14.17 C 439.67 -13.39 439.41 -13.25 439.12 -13.25 L 438.23 -13.25 C 435.16 -13.25 432.05 -12.65 430.38 -9.55 L 430.38 -25.53 L 441.34 -25.53 C 441.63 -25.53 441.93 -25.31 442.11 -24.68 L 442.74 -22.61 L 443.11 -22.68 L 442.26 -25.57 L 442.15 -25.9 L 425.94 -25.9 L 425.94 -25.53 L 428.13 -25.53 C 428.79 -25.53 428.9 -25.27 428.9 -24.97 Z M 468.31 -25.9 L 462.54 -7.88 C 462.5 -7.81 462.46 -7.77 462.46 -7.7 L 460.28 -0.89 C 460.17 -0.59 459.87 -0.37 459.21 -0.37 L 457.02 -0.37 L 457.02 0 L 463.31 0 L 463.31 -0.37 L 461.13 -0.37 C 460.46 -0.37 460.54 -0.59 460.65 -0.89 L 462.8 -7.62 L 462.83 -7.62 C 463.42 -9.47 465.79 -9.14 468.23 -8.99 C 470.08 -8.92 471.93 -8.92 472.67 -10.25 L 475.97 -0.89 C 476.04 -0.59 476.15 -0.37 475.49 -0.37 L 473.3 -0.37 L 473.3 0 L 480.7 0 L 480.7 -0.37 L 478.52 -0.37 C 477.85 -0.37 477.52 -0.59 477.45 -0.89 L 468.68 -25.9 Z M 463.2 -8.84 L 467.98 -23.72 L 472.53 -10.77 C 471.97 -9.29 470.23 -9.25 468.23 -9.36 C 466.38 -9.47 464.35 -9.73 463.2 -8.84 Z M 497.06 -24.97 L 497.06 -0.92 C 497.06 -0.63 496.95 -0.37 496.28 -0.37 L 494.1 -0.37 L 494.1 0 L 500.39 0 L 500.39 -0.37 L 498.2 -0.37 C 497.54 -0.37 497.43 -0.63 497.43 -0.92 L 497.43 -24.72 L 512.97 0 L 513.34 0 L 513.34 -24.97 C 513.34 -25.27 513.45 -25.53 514.11 -25.53 L 516.3 -25.53 L 516.3 -25.9 L 510.01 -25.9 L 510.01 -25.53 L 512.19 -25.53 C 512.86 -25.53 512.97 -25.27 512.97 -24.97 L 512.97 -2.63 L 498.35 -25.9 L 494.1 -25.9 L 494.1 -25.53 L 496.28 -25.53 C 496.95 -25.53 497.06 -25.27 497.06 -24.97 Z" stroke-linecap="round" />
</g>
</g>
</g>
</svg>