<?xml version="1.0" standalone="no"?>
<!DOCTYPE svg PUBLIC "-//W3C//DTD SVG 20010904//EN"
 "http://www.w3.org/TR/2001/REC-SVG-20010904/DTD/svg10.dtd">
<svg version="1.0" xmlns="http://www.w3.org/2000/svg"
 width="540.000000pt" height="540.000000pt" viewBox="0 0 540.000000 540.000000"
 preserveAspectRatio="xMidYMid meet">
<metadata>
Created by potrace 1.14, written by Peter Selinger 2001-2017
</metadata>
<g transform="translate(0.000000,540.000000) scale(0.100000,-0.100000)"
fill="#000000" stroke="none">
<path d="M2230 5359 c-66 -12 -109 -25 -117 -35 -16 -22 -32 -101 -43 -212
-11 -120 3 -257 40 -392 35 -129 72 -289 100 -435 53 -284 139 -678 150 -689
4 -4 16 27 25 70 41 192 64 245 187 423 92 133 125 173 298 362 188 205 250
340 250 546 0 94 0 94 -22 86 -28 -10 -106 -10 -220 1 -100 10 -165 -2 -214
-39 -38 -29 -41 -26 -80 61 -58 131 -177 275 -226 273 -13 0 -70 -10 -128 -20z"/>
<path d="M3202 5303 c-2 -49 -26 -134 -48 -168 -10 -16 -10 -38 -3 -103 10
-78 2 -198 -17 -272 -8 -31 -13 -36 130 123 106 116 188 232 240 334 l26 52
-68 20 c-74 22 -231 61 -247 61 -6 0 -12 -21 -13 -47z"/>
<path d="M1950 5293 c-47 -13 -87 -27 -89 -29 -2 -2 12 -30 31 -61 20 -32 50
-87 68 -122 35 -68 49 -68 50 -1 0 30 28 164 46 223 7 22 -2 21 -106 -10z"/>
<path d="M3522 5177 c-21 -45 -38 -83 -37 -84 1 -2 30 13 66 32 35 19 85 42
112 51 26 8 47 19 47 23 0 4 -33 19 -74 33 l-74 27 -40 -82z"/>
<path d="M1715 5214 c-117 -45 -376 -174 -382 -190 -2 -6 21 -53 53 -103 l57
-92 -23 -24 c-13 -14 -30 -25 -37 -25 -28 0 -138 -125 -177 -203 -36 -71 -41
-76 -56 -62 -36 33 -99 57 -218 84 l-122 28 -63 -66 c-68 -71 -91 -117 -128
-261 -47 -182 -45 -325 11 -573 31 -142 35 -162 105 -602 25 -159 49 -301 54
-314 6 -21 10 -17 30 40 13 35 34 84 46 109 15 30 24 73 29 128 9 117 37 244
110 502 73 256 72 254 86 375 11 104 -1 245 -30 338 -11 34 -18 63 -16 65 6 6
61 -78 93 -143 17 -33 42 -94 57 -135 15 -41 29 -82 32 -90 4 -11 10 -6 22 17
45 86 143 153 261 179 154 35 457 -9 614 -88 l38 -19 -7 38 c-10 60 -58 177
-105 256 -25 44 -77 107 -133 162 -78 78 -106 98 -196 143 -58 28 -139 61
-180 71 -41 11 -63 20 -49 20 48 2 180 -38 273 -82 106 -51 194 -115 265 -193
37 -41 51 -51 51 -37 0 52 -82 400 -115 488 -45 122 -133 295 -148 295 -7 -1
-52 -17 -102 -36z"/>
<path d="M3672 5135 c-150 -72 -231 -140 -371 -313 -46 -57 -136 -160 -200
-230 -190 -206 -341 -375 -338 -379 2 -2 29 6 59 16 87 30 232 51 350 51 l108
0 37 34 c134 119 467 264 587 254 139 -12 263 -122 378 -338 55 -104 99 -242
81 -253 -5 -3 -30 -1 -56 4 -88 16 -175 -14 -292 -102 -63 -48 -131 -78 -172
-79 -37 0 -277 88 -326 119 -17 12 -45 29 -62 38 -70 42 -185 195 -185 248 0
17 -9 18 -107 12 -121 -7 -271 -35 -355 -67 -77 -28 -166 -88 -212 -141 -22
-25 -29 -31 -18 -13 12 17 28 37 37 44 8 7 15 18 15 25 0 8 17 28 38 45 l37
32 -44 -23 c-89 -49 -186 -183 -230 -319 -46 -145 -55 -320 -21 -421 25 -74
21 -96 -9 -49 l-23 35 6 -40 c4 -22 8 -89 11 -150 2 -60 2 -96 -1 -80 -41 273
-52 304 -133 377 -53 48 -145 90 -218 102 l-42 6 -21 -49 c-29 -66 -54 -87
-209 -181 -162 -96 -262 -131 -398 -138 l-91 -4 -6 -37 c-26 -150 -49 -261
-53 -257 -5 4 10 166 23 264 6 39 5 42 -18 42 -13 0 -33 7 -44 15 -10 8 -24
15 -30 15 -15 0 -121 -155 -172 -252 -34 -64 -41 -88 -47 -163 -9 -105 7 -283
34 -375 40 -141 132 -321 217 -426 24 -30 40 -54 35 -54 -10 0 -107 103 -162
173 -85 107 -152 315 -175 542 -6 63 -8 67 -17 40 -5 -16 -10 -81 -10 -143 -2
-97 -3 -107 -12 -73 -5 22 -13 43 -17 47 -5 4 -8 27 -8 51 0 30 -4 42 -11 37
-22 -13 -5 -180 28 -276 53 -151 192 -341 285 -389 21 -11 38 -22 38 -26 0 -3
-20 -3 -45 0 -26 2 -45 3 -43 2 14 -13 328 -219 372 -244 31 -18 56 -38 56
-45 0 -7 14 -44 31 -82 115 -252 369 -937 369 -995 0 -42 19 -15 54 77 84 219
105 411 59 542 -3 9 6 0 20 -21 15 -20 31 -59 36 -85 l9 -47 1 52 c3 126 -87
303 -220 434 -74 73 -163 139 -189 139 -8 1 -26 7 -40 15 l-25 14 25 2 c14 1
32 1 42 0 35 -4 25 17 -15 29 -23 6 -89 35 -147 62 -58 28 -145 66 -195 85
-49 18 -79 31 -65 28 78 -17 141 -38 213 -71 182 -81 201 -87 277 -92 89 -5
148 9 180 43 21 22 22 29 14 72 -10 54 0 49 -189 94 -106 26 -268 28 -353 6
-35 -9 -65 -17 -67 -17 -10 0 30 133 56 184 93 183 242 331 527 520 l137 92
27 79 c14 44 29 103 33 130 11 87 16 105 31 105 8 0 62 -32 120 -71 83 -55
111 -69 130 -65 16 4 24 14 25 29 1 18 2 19 6 4 3 -10 10 -16 16 -13 7 3 122
49 257 104 315 127 363 149 463 215 150 98 244 199 318 343 50 98 51 99 43 44
-36 -240 -233 -562 -461 -756 -78 -66 -222 -163 -305 -205 -54 -27 -71 -50
-49 -64 5 -3 20 -36 32 -73 34 -98 32 -221 -4 -322 -15 -41 -30 -83 -34 -93
-5 -15 4 -17 93 -17 55 0 153 -5 219 -10 120 -10 169 -18 425 -67 117 -22 152
-25 265 -20 72 3 157 13 190 22 75 20 229 95 275 133 l35 29 -34 21 c-26 16
-45 45 -88 134 -30 62 -71 135 -91 162 -37 51 -112 106 -144 106 -28 0 -22 20
36 112 83 131 135 272 136 369 0 71 3 72 210 29 239 -49 255 -53 320 -92 130
-79 182 -214 149 -394 -29 -157 -73 -249 -161 -337 -71 -71 -142 -105 -235
-114 -62 -6 -72 -10 -116 -49 -64 -57 -149 -108 -250 -150 -45 -18 -79 -34
-76 -34 6 0 92 -15 296 -50 201 -36 478 -23 668 30 92 25 105 34 105 65 0 27
54 241 77 305 38 107 106 132 282 107 58 -8 107 -14 109 -12 2 2 6 98 9 213
l6 210 -41 26 c-56 35 -69 59 -76 142 -8 79 5 147 37 206 19 35 19 38 3 105
-24 98 -66 233 -72 233 -2 0 -26 -11 -52 -24 -26 -13 -77 -33 -113 -45 -62
-20 -67 -24 -78 -62 -31 -101 -153 -172 -302 -173 -77 -1 -90 2 -126 26 -80
53 -98 142 -70 348 l12 85 90 1 c89 1 101 5 230 59 6 3 21 -19 34 -48 l24 -52
8 44 c11 60 41 373 36 378 -3 2 -22 6 -43 10 -101 15 -236 112 -342 246 -50
63 -112 165 -112 184 0 6 22 13 49 16 27 3 66 13 87 22 l39 17 -88 84 c-49 46
-130 116 -180 155 l-92 71 -56 -6 c-31 -3 -62 -8 -70 -11 -11 -4 -18 9 -27 55
-8 35 -21 68 -33 79 -31 29 -281 151 -309 151 -14 0 -58 -16 -98 -35z m-1265
-2132 c-3 -10 -5 -2 -5 17 0 19 2 27 5 18 2 -10 2 -26 0 -35z m-1190 -145 c-3
-7 -5 -2 -5 12 0 14 2 19 5 13 2 -7 2 -19 0 -25z m792 -1613 c0 -5 -8 6 -19
25 -11 19 -19 40 -19 45 0 6 8 -6 19 -25 11 -19 19 -39 19 -45z"/>
<path d="M542 4323 c-90 -124 -86 -111 -55 -181 16 -34 31 -61 36 -62 4 0 7
15 7 33 0 36 31 170 54 235 8 23 13 42 12 42 -2 0 -26 -30 -54 -67z"/>
<path d="M2778 4312 c-44 -46 -138 -161 -138 -168 0 -16 97 66 111 94 9 17 29
48 44 67 37 49 27 53 -17 7z"/>
<path d="M391 4100 c-63 -100 -153 -284 -146 -300 3 -8 32 -30 65 -49 78 -45
176 -127 225 -190 22 -28 41 -47 43 -42 2 6 -11 96 -28 201 -27 170 -64 317
-104 412 l-14 32 -41 -64z"/>
<path d="M2121 4025 c-63 -57 -100 -143 -111 -256 -5 -52 -10 -110 -10 -130
l0 -36 83 -5 c47 -4 105 -15 136 -27 30 -11 56 -19 58 -17 2 2 -7 41 -21 87
-13 46 -38 158 -56 249 -18 91 -33 166 -35 168 -2 2 -22 -13 -44 -33z"/>
<path d="M5021 3913 c-19 -49 -48 -128 -66 -178 l-33 -90 39 -47 c22 -25 44
-60 50 -77 13 -38 16 -37 137 20 46 22 86 47 89 55 3 9 -7 48 -22 87 -39 100
-143 317 -153 317 -4 0 -23 -39 -41 -87z"/>
<path d="M2245 3845 c4 -62 58 -282 77 -319 6 -12 22 -32 34 -45 l24 -24 -1
59 c-2 56 -2 57 -9 19 -7 -39 -7 -39 -9 -7 -1 44 -36 152 -72 229 -17 33 -34
81 -39 105 -9 41 -9 40 -5 -17z"/>
<path d="M241 3713 c-6 -20 -28 -55 -50 -77 -34 -35 -45 -59 -76 -160 -72
-241 -104 -442 -112 -725 l-6 -193 104 5 c110 6 114 7 -59 -19 -31 -5 -32 -6
-32 -52 0 -46 16 -173 25 -202 4 -13 29 -14 158 -12 211 5 297 -11 442 -83 61
-30 143 -80 183 -110 l73 -56 71 3 71 3 -50 60 c-120 146 -143 193 -227 475
-49 165 -66 253 -112 585 -23 168 -107 337 -228 463 -55 58 -145 132 -159 132
-3 0 -11 -17 -16 -37z"/>
<path d="M1072 3484 c-10 -19 -92 -301 -92 -317 0 -8 36 32 90 102 34 44 35
46 32 130 -3 89 -13 117 -30 85z"/>
<path d="M3050 3073 c-8 -3 -52 -23 -98 -44 -106 -49 -138 -58 -129 -35 4 9 5
16 4 16 -7 0 -268 -93 -314 -112 -57 -23 -58 -21 22 -80 28 -20 68 -55 90 -77
22 -22 43 -40 47 -41 12 0 110 62 105 66 -2 3 -16 0 -30 -5 -53 -20 -34 4 41
52 89 56 103 68 74 60 -33 -8 -16 33 24 58 19 11 34 24 34 28 0 5 34 32 75 62
41 29 75 55 75 56 0 3 1 3 -20 -4z"/>
<path d="M716 2890 c3 -30 15 -97 25 -149 10 -52 19 -99 19 -105 0 -6 4 -6 11
1 15 15 8 161 -9 172 -7 4 -21 36 -32 72 l-19 64 5 -55z"/>
<path d="M1880 2591 c-58 -38 -130 -91 -161 -118 -79 -67 -232 -234 -280 -305
-39 -57 -94 -167 -86 -174 1 -2 32 6 67 18 96 31 262 29 390 -5 52 -14 102
-27 110 -28 13 -3 15 18 15 146 l0 150 -37 68 c-21 37 -38 74 -38 83 0 20 30
77 78 150 47 71 54 84 50 84 -2 0 -51 -31 -108 -69z"/>
<path d="M145 2219 c-99 -13 -98 -12 -90 -62 8 -44 73 -288 79 -294 2 -2 19
10 37 28 43 39 126 94 159 104 14 4 44 16 67 27 84 39 265 34 353 -11 25 -13
42 -16 59 -9 23 8 20 11 -50 64 -159 119 -252 154 -429 159 -63 2 -146 0 -185
-6z"/>
<path d="M2661 2084 c-14 -36 -92 -148 -134 -192 -18 -18 -48 -43 -67 -54 -64
-39 -130 -81 -130 -84 0 -2 55 -45 123 -96 67 -50 187 -142 267 -204 317 -243
592 -393 793 -430 l39 -7 -40 74 c-70 127 -98 274 -73 382 9 37 7 41 -79 155
-195 261 -376 398 -555 422 -60 7 -60 7 25 7 47 0 103 -6 125 -14 36 -11 38
-11 21 2 -41 31 -132 57 -217 62 l-86 6 -12 -29z m52 -21 c-7 -2 -19 -2 -25 0
-7 3 -2 5 12 5 14 0 19 -2 13 -5z"/>
<path d="M2995 2073 c45 -23 62 -26 175 -28 82 -2 115 0 95 6 -28 8 -194 34
-280 44 l-40 4 50 -26z"/>
<path d="M3125 1997 c93 -67 212 -201 305 -342 29 -44 55 -82 57 -85 3 -3 9 3
14 13 21 37 260 9 440 -52 188 -64 236 -98 286 -206 26 -56 28 -68 27 -180 -1
-88 -7 -145 -24 -215 -26 -108 -76 -230 -95 -230 -7 0 -24 15 -39 34 -15 20
-53 48 -89 65 -51 26 -81 33 -176 41 -86 7 -128 16 -165 34 -46 21 -58 23
-121 15 -99 -11 -315 -11 -415 1 -291 36 -536 166 -810 431 -102 98 -97 99 15
2 132 -114 304 -229 400 -268 l40 -17 -35 32 c-42 37 -29 36 79 -9 86 -36 82
-36 74 -14 -4 11 -3 14 5 9 7 -4 12 -3 12 3 0 7 9 7 28 0 15 -6 44 -13 65 -15
22 -2 68 -13 104 -24 100 -31 97 -24 -12 32 -55 27 -108 57 -118 66 -18 16
-18 17 0 23 14 5 10 10 -23 31 -63 40 -233 178 -409 332 -88 77 -184 158 -212
180 l-53 41 -122 0 c-81 0 -131 5 -146 13 -19 11 -27 10 -50 -6 -45 -31 -110
-52 -163 -52 -28 0 -49 -4 -47 -9 2 -4 34 -34 71 -66 104 -87 169 -174 250
-329 104 -202 128 -260 207 -498 40 -117 86 -241 103 -276 45 -90 143 -210
225 -274 73 -57 196 -127 207 -117 3 4 9 24 12 45 4 22 22 62 42 89 19 28 52
74 73 104 55 78 81 153 80 232 l0 65 171 0 c170 -1 173 0 262 32 142 53 132
58 177 -88 67 -213 86 -283 93 -332 3 -27 11 -48 17 -48 6 0 75 32 153 70 153
75 359 206 490 310 85 68 331 303 346 332 13 24 -2 50 -68 119 l-54 57 54 53
c29 30 72 88 96 129 23 41 60 91 82 110 l39 35 -75 82 c-133 144 -300 253
-470 306 -82 25 -134 35 -355 62 -69 9 -210 31 -315 50 -233 42 -546 95 -560
95 -5 0 4 -10 20 -23z"/>
<path d="M4808 1934 c-93 -31 -306 -74 -372 -74 -27 0 -22 -5 49 -45 147 -84
255 -177 364 -315 l52 -65 62 -1 c34 0 72 -6 84 -13 19 -10 24 -8 37 11 45 69
205 463 193 475 -3 2 -17 -1 -33 -7 -16 -6 -65 -12 -109 -13 -69 -1 -88 2
-137 26 -31 15 -59 34 -62 42 -7 20 -14 19 -128 -21z"/>
<path d="M862 1943 c-28 -5 -36 -25 -51 -118 -6 -38 -14 -81 -18 -95 -6 -24
-6 -25 19 -8 50 33 193 86 292 109 88 20 97 24 81 36 -11 7 -30 13 -44 13 -37
0 -119 24 -170 48 -44 21 -62 24 -109 15z"/>
<path d="M1145 1804 c-193 -59 -365 -143 -376 -184 -15 -54 -9 -186 11 -245
11 -32 17 -68 14 -81 -4 -13 -48 -69 -100 -125 -126 -134 -124 -130 -77 -187
67 -83 255 -272 353 -354 89 -75 382 -278 401 -278 4 0 49 19 99 42 105 50
100 24 47 233 -56 220 -52 225 15 21 l63 -188 122 -2 c100 -1 123 2 123 13 0
8 -7 53 -16 100 -38 207 -155 587 -241 785 -20 45 -61 143 -92 219 l-57 139
-60 32 c-32 17 -77 44 -99 59 -22 15 -42 27 -45 26 -3 0 -41 -11 -85 -25z"/>
<path d="M2117 1070 c5 -62 25 -120 41 -120 4 0 20 -29 36 -65 29 -67 43 -83
26 -29 -23 71 -82 231 -95 254 -12 23 -13 19 -8 -40z"/>
<path d="M2110 936 c0 -72 -68 -272 -143 -423 -33 -65 -34 -71 -26 -135 4 -37
10 -114 13 -170 l4 -103 43 -13 c106 -31 445 -89 456 -78 2 1 -13 43 -33 92
-20 49 -71 193 -114 319 -171 503 -200 577 -200 511z"/>
<path d="M2454 273 c3 -10 26 -74 50 -143 l44 -125 156 -3 c86 -1 156 1 156 5
0 23 -42 71 -67 77 -59 15 -177 80 -259 142 -54 41 -84 59 -80 47z"/>
</g>
</svg>
